# xmcd
#
# Track frame offsets: 
#        150
#        21934
#        38910
#        54435
#        76172
#        102885
#        126160
#        144272
#        165847
#        181122
#        192935
#        206647
#        229447
#        260022
#        278360
#        301135
#        315704
#
# Disc length: 4372 seconds
#
# Revision: 1
# Processed by: cddbd v1.5.2PL0 Copyright (c) Steve Scherf et al.
# Submitted via: ExactAudioCopyFreeDBPlugin 1.0
#
DISCID=db111211
DTITLE=Sampler - Bluescorner Vol.1 CD 2
DYEAR=2002
DGENRE=Blues
TTITLE0=George Thorogood and The Destroyer - Bad To The Bone
TTITLE1=The Robert Cray Band - Don't Be Afraid Of The Dark
TTITLE2=Gregg Allman - Demons
TTITLE3=Keb' Mo' - More Then One Way Home
TTITLE4=Blood, Sweat and Tears - I Love You More Than You'll Ever Know
TTITLE5=The Jeff Healey Band - While My Guitar Gently Weeps
TTITLE6=Chet Atkins and Mark Knopfler - Poor Boy Blues
TTITLE7=The Electric Flag - Texas
TTITLE8=Moby Grape - Can't Be So Bad
TTITLE9=Taj Mahal - Chevrolet
TTITLE10=Christine Perfect - Crazy 'Bout You Baby
TTITLE11=Marla Glenn - Believer
TTITLE12=James Blood Ulmer - Cheering
TTITLE13=Johnny Winter - Cheap Tequila
TTITLE14=The Vaughan Brothers - Brothers
TTITLE15=Chicken Shack - I'd Rather Go Blind
TTITLE16=Bo Diddley - Bo Diddley
EXTD=
EXTT0=
EXTT1=
EXTT2=
EXTT3=
EXTT4=
EXTT5=
EXTT6=
EXTT7=
EXTT8=
EXTT9=
EXTT10=
EXTT11=
EXTT12=
EXTT13=
EXTT14=
EXTT15=
EXTT16=
PLAYORDER=
